<svg width="20" height="20" viewBox="0 0 20 20" fill="none" xmlns="http://www.w3.org/2000/svg">
<path d="M1 4.6C1 2.61 2.61004 1 4.60004 1C6.59004 1 8.20001 2.61 8.20001 4.6C8.20001 6.59 6.59004 8.2 4.60004 8.2C2.62004 8.2 1 6.59 1 4.6ZM15.4 8.2C17.39 8.2 19 6.59 19 4.6C19 2.61 17.39 1 15.4 1C13.41 1 11.8 2.61 11.8 4.6C11.8 6.59 13.42 8.2 15.4 8.2ZM4.60004 19C6.59004 19 8.20001 17.39 8.20001 15.4C8.20001 13.41 6.59004 11.8 4.60004 11.8C2.61004 11.8 1 13.41 1 15.4C1 17.39 2.62004 19 4.60004 19ZM15.4 19C17.39 19 19 17.39 19 15.4C19 13.41 17.39 11.8 15.4 11.8C13.41 11.8 11.8 13.41 11.8 15.4C11.8 17.39 13.42 19 15.4 19Z" stroke="#101010" stroke-width="1.5" stroke-miterlimit="10" stroke-linecap="round"/>
</svg>
