<svg width="16" height="16" viewBox="0 0 16 16" fill="none" xmlns="http://www.w3.org/2000/svg">
<g opacity="0.5">
<path d="M8 14C11.3137 14 14 11.3137 14 8C14 4.68629 11.3137 2 8 2C4.68629 2 2 4.68629 2 8C2 11.3137 4.68629 14 8 14Z" stroke="#7B7B7B" stroke-width="1.5" stroke-linecap="round" stroke-linejoin="round"/>
<path d="M8 11.8984C8.41421 11.8984 8.75 11.5627 8.75 11.1484C8.75 10.7342 8.41421 10.3984 8 10.3984C7.58579 10.3984 7.25 10.7342 7.25 11.1484C7.25 11.5627 7.58579 11.8984 8 11.8984Z" fill="#7B7B7B"/>
<path d="M6.34668 5.81971C6.59988 4.85491 7.38648 4.35571 8.26728 4.40131C9.13728 4.44631 9.94668 4.92451 9.90948 6.03451C9.85608 7.61251 8.17908 7.39831 7.99128 8.89831H7.99788" stroke="#7B7B7B" stroke-width="1.5" stroke-linecap="round" stroke-linejoin="round"/>
</g>
</svg>
